<mxfile host="Electron" modified="2023-11-21T21:01:06.380Z" agent="Mozilla/5.0 (Windows NT 10.0; Win64; x64) AppleWebKit/537.36 (KHTML, like Gecko) draw.io/22.0.3 Chrome/114.0.5735.289 Electron/25.8.4 Safari/537.36" etag="ibaicfEuOV1HDWxcQ_Ev" version="22.0.3" type="device">
  <diagram name="Page-1" id="GRZsODsYcEZRLkXFXPKS">
    <mxGraphModel dx="1368" dy="1180" grid="1" gridSize="10" guides="1" tooltips="1" connect="1" arrows="1" fold="1" page="1" pageScale="1" pageWidth="3300" pageHeight="4681" math="0" shadow="0">
      <root>
        <mxCell id="0" />
        <mxCell id="1" parent="0" />
        <mxCell id="jm2Mjy_eXrlXMl3nPBMU-1" value="" style="rounded=0;whiteSpace=wrap;html=1;" vertex="1" parent="1">
          <mxGeometry x="760" y="560" width="120" height="190" as="geometry" />
        </mxCell>
        <mxCell id="jm2Mjy_eXrlXMl3nPBMU-11" value="" style="endArrow=none;html=1;rounded=0;" edge="1" parent="1">
          <mxGeometry width="50" height="50" relative="1" as="geometry">
            <mxPoint x="684.5" y="630" as="sourcePoint" />
            <mxPoint x="684.5" y="660" as="targetPoint" />
          </mxGeometry>
        </mxCell>
        <mxCell id="jm2Mjy_eXrlXMl3nPBMU-12" value="" style="triangle;whiteSpace=wrap;html=1;direction=south;" vertex="1" parent="1">
          <mxGeometry x="660" y="600" width="50" height="30" as="geometry" />
        </mxCell>
        <mxCell id="jm2Mjy_eXrlXMl3nPBMU-2" value="" style="endArrow=none;html=1;rounded=0;" edge="1" parent="1">
          <mxGeometry width="50" height="50" relative="1" as="geometry">
            <mxPoint x="760" y="621" as="sourcePoint" />
            <mxPoint x="700" y="621" as="targetPoint" />
          </mxGeometry>
        </mxCell>
        <mxCell id="jm2Mjy_eXrlXMl3nPBMU-13" value="Text" style="edgeLabel;html=1;align=center;verticalAlign=middle;resizable=0;points=[];" vertex="1" connectable="0" parent="jm2Mjy_eXrlXMl3nPBMU-2">
          <mxGeometry x="-0.2" y="-3" relative="1" as="geometry">
            <mxPoint as="offset" />
          </mxGeometry>
        </mxCell>
        <mxCell id="jm2Mjy_eXrlXMl3nPBMU-3" value="" style="endArrow=none;html=1;rounded=0;" edge="1" parent="1">
          <mxGeometry width="50" height="50" relative="1" as="geometry">
            <mxPoint x="700" y="591" as="sourcePoint" />
            <mxPoint x="700" y="621" as="targetPoint" />
          </mxGeometry>
        </mxCell>
        <mxCell id="jm2Mjy_eXrlXMl3nPBMU-4" value="" style="triangle;whiteSpace=wrap;html=1;direction=south;" vertex="1" parent="1">
          <mxGeometry x="676" y="560" width="50" height="30" as="geometry" />
        </mxCell>
        <mxCell id="jm2Mjy_eXrlXMl3nPBMU-14" value="" style="endArrow=none;html=1;rounded=0;" edge="1" parent="1">
          <mxGeometry width="50" height="50" relative="1" as="geometry">
            <mxPoint x="760" y="660" as="sourcePoint" />
            <mxPoint x="686" y="660" as="targetPoint" />
          </mxGeometry>
        </mxCell>
        <mxCell id="jm2Mjy_eXrlXMl3nPBMU-15" value="Text" style="edgeLabel;html=1;align=center;verticalAlign=middle;resizable=0;points=[];" vertex="1" connectable="0" parent="jm2Mjy_eXrlXMl3nPBMU-14">
          <mxGeometry x="-0.2" y="-3" relative="1" as="geometry">
            <mxPoint as="offset" />
          </mxGeometry>
        </mxCell>
        <mxCell id="jm2Mjy_eXrlXMl3nPBMU-17" value="" style="endArrow=none;html=1;rounded=0;" edge="1" parent="1">
          <mxGeometry width="50" height="50" relative="1" as="geometry">
            <mxPoint x="760" y="700" as="sourcePoint" />
            <mxPoint x="670" y="700" as="targetPoint" />
          </mxGeometry>
        </mxCell>
        <mxCell id="jm2Mjy_eXrlXMl3nPBMU-18" value="Text" style="edgeLabel;html=1;align=center;verticalAlign=middle;resizable=0;points=[];" vertex="1" connectable="0" parent="jm2Mjy_eXrlXMl3nPBMU-17">
          <mxGeometry x="-0.2" y="-3" relative="1" as="geometry">
            <mxPoint as="offset" />
          </mxGeometry>
        </mxCell>
        <mxCell id="jm2Mjy_eXrlXMl3nPBMU-21" value="" style="endArrow=none;html=1;rounded=0;" edge="1" parent="1">
          <mxGeometry width="50" height="50" relative="1" as="geometry">
            <mxPoint x="674.5" y="670" as="sourcePoint" />
            <mxPoint x="674.5" y="700" as="targetPoint" />
          </mxGeometry>
        </mxCell>
        <mxCell id="jm2Mjy_eXrlXMl3nPBMU-22" value="" style="triangle;whiteSpace=wrap;html=1;direction=south;" vertex="1" parent="1">
          <mxGeometry x="650" y="640" width="50" height="30" as="geometry" />
        </mxCell>
      </root>
    </mxGraphModel>
  </diagram>
</mxfile>
